<?xml version="1.0" encoding="UTF-8"?><svg id="a" xmlns="http://www.w3.org/2000/svg" viewBox="0 0 5 5"><path d="M2.16001,4.31664c-.20954-.11855-.42063-.23446-.62818-.35639-.20828-.12236-.41026-.25566-.62061-.37422-.09333-.0526-.13286-.11641-.13271-.22233,.00024-.16815-.0024-.33731-.0205-.50424-.03174-.29268-.04094-.58561-.03727-.87938,.00026-.02042,.01113-.04071,.01706-.06106,.1528,.10981,.31259,.20767,.48947,.27384,.04178,.01563,.08837,.01842,.13274,.02712,.00665,.00002,.0133,.00004,.01996,.00006,.01333,.00667,.02666,.01333,.04,.02h.00001c.02001,.00666,.04001,.01332,.06002,.01997,.05337,.02666,.10674,.05332,.1601,.07998,.03657,.02477,.0708,.05448,.11023,.07321,.06895,.03275,.14111,.05876,.21193,.08759,.0123,.00564,.02459,.01129,.03689,.01693,.02029,.00075,.04058,.00149,.06088,.00224,.11352,.0067,.22704,.01341,.34056,.02011,.01338,.01319,.02676,.02639,.04015,.03958-.00015,.00677-.00029,.01354-.00044,.02031-.00011,.08002-.00023,.16003-.00034,.24005-.00876-.02261-.02314-.04478-.02497-.06795-.00284-.03596,.00185-.07268,.0052-.10891,.0044-.0475-.01596-.06276-.06318-.06437-.07905-.00269-.16051-.00364-.23585-.02411-.05907-.01604-.09828-.01838-.12236,.05047-.02187-.03746-.03178-.08021-.0548-.08914-.07544-.02925-.15565-.04619-.23402-.06787-.00282,.00501-.00564,.01003-.00847,.01504,.02978,.02278,.05955,.04556,.09116,.06974-.03314,.01063-.06109,.01959-.07719,.02475-.02798-.03328-.04601-.07492-.07278-.08161-.03584-.00896-.07845,.00916-.13514,.01842,.03945,.02673,.06487,.04396,.0954,.06464-.01665,.02224-.0365,.05676-.04193,.05462-.02477-.00973-.04548-.02977-.08112-.05603,.01416,.05149,.01256,.10396,.03668,.12197,.06167,.04604,.09646,.1175,.15673,.159,.05532,.0381,.10226,.05839,.01694,.11093-.00603,.00371-.01021,.01923-.00769,.0267,.0306,.09049-.04445,.12006-.09425,.1633-.0067,.00581-.02715,.0064-.03203,.00104-.00631-.00693-.0073-.02365-.00378-.0338,.02446-.07058,.05165-.14024,.07476-.21123,.00223-.00685-.01734-.02982-.02701-.02996-.04623-.00066-.0864,.06198-.06135,.10039,.02677,.04104,.01589,.05917-.02441,.07316-.01474,.00512-.02886,.01201-.04096,.01712,.02186,.04554,.03493,.09072,.06218,.12444,.02661,.03292,.06769,.05414,.09848,.0775-.00283-.05834,.01253-.1196,.08458-.12354,.01455-.04848,.0241-.08794,.03894-.12531,.00479-.01205,.02614-.02811,.03523-.02557,.01662,.00464,.036,.01882,.04326,.0342,.03354,.07098,.01941,.10829-.04759,.15872-.03897,.02933-.0758,.06208-.11026,.09662-.02558,.02563-.02689,.05347,.01209,.07093,.14671,.06572,.17414,.19487,.18015,.33614,.00053,.01256,.00952,.02476,.01459,.03712,.01091-.01241,.02879-.02352,.03139-.03748,.00702-.03776,.00755-.07672,.01119-.12187,.01832,.0108,.0232,.01219,.02335,.01398,.0052,.06137,.06307,.04879,.09507,.07206,.03233,.02351-.00267,.09484,.06156,.11191,.01408,.00374,.02348,.02509,.0466,.05159h-.14533c-.01095,.0048-.02189,.00959-.03284,.01439,.11817,.02595,.06598,.08481,.05473,.12446,.06179,.03175,.11491,.05905,.17093,.08784-.04972,.0542-.11289,.08148-.1343,.16053,.07579-.02617,.13875-.04791,.20094-.06938,.04044,.08388,.03516,.10493-.04201,.1014-.06326-.00289-.06573,.02612-.06641,.06963Zm-.76323-2.04816c-.00219-.00231-.00438-.00461-.00658-.00692-.0023,.0022-.0046,.00439-.0069,.00659,.00332,.00233,.00663,.00466,.00995,.00699,.00118-.00222,.00235-.00444,.00353-.00667Z" style="fill:#191411;"/><path d="M2.16001,4.31664c.00068-.0435,.00315-.07252,.06641-.06963,.07717,.00353,.08246-.01752,.04201-.1014-.06219,.02147-.12515,.04321-.20094,.06938,.02142-.07905,.08458-.10633,.1343-.16053-.05602-.02879-.10915-.05609-.17093-.08784,.01125-.03965,.06344-.09852-.05473-.12446,.01095-.0048,.02189-.00959,.03284-.01439h.14533c-.02313-.0265-.03253-.04784-.0466-.05159-.06423-.01707-.02923-.0884-.06156-.11191-.032-.02327-.08987-.01069-.09507-.07206-.00015-.00179-.00503-.00318-.02335-.01398-.00364,.04515-.00417,.08411-.01119,.12187-.0026,.01396-.02048,.02507-.03139,.03748-.00506-.01237-.01405-.02456-.01459-.03712-.00601-.14128-.03344-.27042-.18015-.33614-.03898-.01746-.03766-.0453-.01209-.07093,.03446-.03453,.07129-.06729,.11026-.09662,.067-.05043,.08113-.08774,.04759-.15872-.00727-.01538-.02665-.02956-.04326-.0342-.00909-.00254-.03044,.01352-.03523,.02557-.01484,.03736-.02438,.07682-.03894,.12531-.07205,.00394-.0874,.0652-.08458,.12354-.03078-.02336-.07187-.04458-.09848-.0775-.02725-.03372-.04032-.0789-.06218-.12444,.0121-.00511,.02622-.012,.04096-.01712,.0403-.014,.05118-.03212,.02441-.07316-.02505-.03841,.01512-.10105,.06135-.10039,.00967,.00014,.02924,.02312,.02701,.02996-.0231,.071-.0503,.14065-.07476,.21123-.00352,.01015-.00253,.02687,.00378,.0338,.00488,.00536,.02533,.00478,.03203-.00104,.0498-.04324,.12486-.07281,.09425-.1633-.00253-.00747,.00165-.02299,.00769-.0267,.08533-.05254,.03839-.07283-.01694-.11093-.06026-.04151-.09506-.11297-.15673-.159-.02412-.01801-.02252-.07047-.03668-.12197,.03564,.02626,.05636,.0463,.08112,.05603,.00544,.00214,.02528-.03238,.04193-.05462-.03053-.02069-.05594-.03791-.0954-.06464,.05669-.00927,.0993-.02738,.13514-.01842,.02677,.00669,.0448,.04833,.07278,.08161,.01611-.00516,.04405-.01413,.07719-.02475-.03161-.02419-.06139-.04697-.09116-.06974,.00282-.00501,.00564-.01003,.00847-.01504,.07837,.02168,.15858,.03862,.23402,.06787,.02302,.00892,.03293,.05167,.0548,.08914,.02409-.06885,.0633-.06651,.12236-.05047,.07534,.02046,.1568,.02141,.23585,.02411,.04722,.00161,.06758,.01686,.06318,.06437-.00336,.03623-.00804,.07296-.0052,.10891,.00183,.02316,.01621,.04533,.02497,.06795,.00036,.14751,.00073,.29501,.00109,.44252-.00238,.39802-.00475,.79604-.00723,1.2108-.09692-.06254-.18536-.11961-.2738-.17669Zm-.16075-1.19587c-.03952,.02505-.10034,.02465-.08508,.10316,.00415,.02137-.02849,.0493-.04282,.07502-.01412,.02534-.02879,.05085-.03839,.078-.00407,.01151,.00057,.03659,.0076,.03935,.01504,.00592,.03879,.00804,.05088-.00018,.04474-.03042,.06197-.10264,.04239-.15733q.10731-.07179,.06543-.13802Z" style="fill:#181311;"/><path d="M.68334,1.54001c-.00779-.07306-.01641-.14605-.02298-.21922-.00289-.03216-.00507-.06642,.03772-.07744,.09355,.04726,.1871,.09452,.28065,.14179,.05974,.02667,.11948,.05334,.17922,.08002,.04068,.01828,.08136,.03655,.12204,.05483,.07974,.03519,.15947,.07038,.23921,.10557,.05985,.02658,.1197,.05316,.17955,.07974,.04043,.01803,.08087,.03605,.1213,.05408l.09911,.04379c.10672,.0474,.21344,.0948,.32016,.14221,.05988,.02646,.11976,.05292,.17964,.07938,.00791,.01144,.01581,.02289,.02372,.03433l.00006,.08088c-.00002,.07332-.00003,.14665-.00005,.21997-.00178,.02694-.00356,.05388-.00533,.08082-.00581-.00687-.01162-.01373-.01743-.0206-.0192-.04519-.0871-.06042-.07631-.12406-.01729,.00083-.04084-.00536-.05087,.00359-.08183,.07308-.17067,.03676-.25987,.02354-.13365-.01981-.23356-.1179-.36698-.14549-.12816-.02651-.23732-.11189-.35343-.17424-.03198-.01717-.06868-.02549-.10079-.04246-.04422-.02336-.08527-.05267-.12927-.0765-.0427-.02311-.09263-.03581-.1301-.06499-.06969-.05427-.14908-.09987-.16984-.20177-.00746-.03662-.03619-.09034-.09911-.07777Z" style="fill:#1b4922;"/><path d="M4.29666,2.14004c-.00002,.10722,.02067,.21573-.01999,.32041-.02933,.01356-.05766,.03034-.08824,.03991-.0439,.01374-.08189,.04275-.12062,.05728-.0404,.01515-.09195,.01612-.12815,.04374-.0611,.04663-.17065,.05911-.13965,.17862-.00205,.0675,.02063,.13705-.01894,.20167-.00573,.00936-.00049,.02544-.00032,.03841l-.00028,.05981c-.00015,.06004-.0003,.12007-.00044,.18011-.00728,.01996-.01456,.03992-.02184,.05988,.00113-.08533,.00262-.17067,.00319-.256,.00019-.02887,.00559-.06241-.03947-.06402-.00101-.01996-.00202-.03991-.00303-.05987,.00855-.03478,.01995-.06918,.02468-.10448,.00335-.02502-.00229-.05124-.00393-.07693,.00021-.02343,.00293-.04756-.03493-.03383-.03426,.01242-.06977,.02138-.10472,.03186-.03246-.00688-.07064-.02819-.09634-.018-.0839,.03326-.16639,.0589-.25676,.07645-.11702,.02272-.24182-.00561-.35232,.0537-.00661,.00355-.01874-.00506-.02799-.00428-.04203,.00356-.0839,.00899-.12592,.01275-.08764,.00784-.17691,.00104-.26232,.02966-.00479,.0016-.01213-.00443-.01829-.00691,0-.09333,0-.18666-.00001-.27998,.06756,.01039,.13596,.01706,.20254,.03186,.22773,.05061,.44886,.04895,.65743-.07188,.01328-.00069,.02969,.00338,.03929-.00292,.03554-.02332,.06726-.05264,.10347-.0747,.02849-.01736,.08741,.01739,.08693-.05138-.00001-.00199,.01321-.00764,.01684-.00557,.05693,.03245,.06544-.02042,.08841-.04877,.00823-.01017,.02094-.02679,.02906-.02542,.08347,.01409,.16111-.03431,.23496-.03138,.06071,.0024,.02998-.03862,.04704-.04522,.01601,.01551,.03084,.02987,.04568,.04424,.00484-.01435,.00657-.03106,.01525-.04249,.01324-.01743,.03098-.04406,.04733-.04444,.09859-.00232,.10739-.00613,.1583-.07067,.01488-.01886,.04239-.02777,.0641-.04124Z" style="fill:#3f2e1c;"/><path d="M2.23932,1.94536c-.10672-.0474-.21344-.0948-.32016-.14221-.02107-.04695,.00195-.07282,.04171-.09425,.04292-.02312,.0891-.04441,.12371-.07721,.02251-.02134,.02099-.06645,.04129-.0922,.01554-.01971,.04818-.03539,.07358-.03594,.05416-.00116,.04292-.05773,.07535-.07654,.03044-.01766,.05922-.0635,.08399-.0603,.05017,.0065,.06295-.03483,.09154-.04565,.07235-.02739,.1325-.07615,.20478-.10227,.03258-.01178,.05753-.04369,.08978-.05752,.0784-.03363,.15996-.05987,.23854-.09311,.08718-.03687,.1731-.07695,.25806-.11869,.01638-.00805,.02584-.03021,.03849-.04586,.13096,.05166,.26462,.09587,.38752,.16783,.04246,.02486,.09962,.02401,.14957,.03684,.06787,.01743,.13525,.03672,.20285,.05521-.01517,.01214-.02953,.0333-.04566,.03474-.05106,.00455-.10278,.00173-.15424,.00177-.08319,0-.16648,.00241-.24955-.00086-.05469-.00215-.11021-.00494-.13761-.07037-.01908-.04556-.06355-.05347-.11015-.04864-.15153,.01571-.2698,.09573-.38028,.19277-.02249,.01976-.05084,.0338-.07822,.04686-.09427,.04501-.19926,.07535-.28046,.13717-.05165,.03931-.10228,.07567-.15975,.10457-.01733,.00871-.03438,.01989-.04816,.03341-.07039,.06905-.13981,.13909-.20928,.20907-.03917,.03946-.03594,.06158,.01182,.0952,.02083,.01466,.04066,.03074,.06095,.04617Z" style="fill:#38aa36;"/><path d="M4.35663,1.30014c.02988,.04663,.03844,.09101-.00277,.13822-.01277,.01463-.01184,.04121-.01718,.06232-.02972,.01232,.00409,.08824-.06899,.06379-.02421-.0081-.03868,.06642-.0906,.03764-.00845-.00468-.03068,.01901-.04798,.02602-.0296,.01198-.05974,.02367-.09072,.03096-.06873,.01618-.13813,.02956-.21304,.04529,.01874,.01348,.02995,.02156,.0524,.03771-.0501-.00287-.09426,.00737-.12062-.00976-.04473-.02909-.07561,.03931-.11372,.00531-.01442,.07248-.05888,.0454-.10316,.03479-.02226-.00534-.0527-.0009-.07212,.01103-.05079,.03121-.09371,.01655-.13565-.01285-.02276,.02016-.04375,.03877-.06137,.05438-.03579-.0169-.05482-.05778-.10342-.01215-.02381,.02236-.08401,.00598-.12774,.00713,.04669-.02665,.09338-.0533,.14008-.07996,.0779-.02584,.15686-.04889,.23351-.07802,.31474-.11961,.62879-.24107,.94309-.36185Z" style="fill:#26a738;"/><path d="M4.35663,1.30014c-.3143,.12078-.62834,.24224-.94309,.36185-.07665,.02913-.15561,.05218-.23351,.07802-.02836,.00425-.05671,.0085-.09342,.014,.00965-.01908,.01319-.03969,.024-.04473,.02493-.01163,.07658-.0157,.07658-.02286,.00003-.04108,.02677-.05064,.05365-.06859,.02734-.01826,.04558-.04958,.07125-.07106,.02439-.0204,.05332-.03534,.08009-.05293,.02646-.01739,.05173-.03686,.07926-.05232,.07404-.04159,.14698-.08601,.22419-.12081,.07224-.03257,.14939-.05424,.22438-.08071,.05985-.01594,.13103,.01659,.18086-.04225,.07895,.02349,.15814,.04621,.23649,.07151,.00883,.00285,.01296,.02023,.01927,.03087Z" style="fill:#44ac35;"/><path d="M1.82005,1.75936c-.04043-.01803-.08087-.03605-.1213-.05408-.01954-.03594-.08739-.05365-.04659-.11227,.03665-.05265,.07073-.11089,.1193-.15015,.03447-.02787,.10561-.0049,.11602-.07627,.11023-.01824,.16963-.13622,.28546-.14572,.01343-.0011,.02581-.02388,.03724-.03779,.0088-.01072,.01366-.03177,.02317-.03367,.06541-.01305,.13863-.00647,.17633-.08018,.07526,.01983,.11686-.04714,.17621-.06814,.13524-.04783,.27112-.09384,.40606-.14249,.00624-.00225,.00578-.02307,.00844-.03524,.0401,.0114,.0802,.0228,.1203,.03419,.00556,.01506,.01113,.03011,.01686,.04563-.02415,.00437-.0452,.00982-.06658,.01173-.05622,.005-.08995,.05958-.13697,.07019-.09795,.0221-.195,.03564-.26148,.12313-.0096,.01263-.03568,.02438-.04927,.02031-.05788-.01735-.1054-.00698-.13337,.04696-.03355,.06469-.0976,.02164-.14124,.04654-.00558,.00318-.01014,.00866-.01427,.0138-.05797,.07217-.13616,.11447-.21521,.16019-.09717,.05619-.18663,.12725-.2738,.19875-.0764,.06266-.07612,.08825-.02532,.16458Z" style="fill:#31a937;"/><path d="M1.5192,1.62554c-.07974-.03519-.15947-.07038-.23921-.10557-.01224-.06607,.0495-.09304,.08351-.102,.04541-.01196,.06396-.039,.08799-.06788,.00632-.0076,.01023-.01721,.01524-.02589,.04186,.03371,.06341-.01036,.08028-.02915,.07064-.07861,.1869-.08369,.25518-.16389,.00394-.00462,.01211-.00943,.01739-.00856,.10476,.01735,.17721-.06101,.24541-.10931,.07916-.05607,.16413-.0719,.24756-.09979,.13744-.04596,.26416-.12181,.40957-.14562,.02067-.00339,.03923-.0197,.05876-.03003,.03303,.01516,.06605,.03032,.09908,.04547-.00028,.00331-.00004,.00938-.00091,.00954-.09071,.01699-.16024,.10129-.26352,.08213-.0123-.00228-.02966,.02199-.04446,.0342-.0119,.00982-.02197,.02554-.03543,.02923-.14775,.04052-.28477,.10719-.42333,.17031-.05933,.02703-.12485,.0439-.17848,.07918-.06811,.04481-.12686,.1038-.19003,.15622-.00738,.00613-.0172,.00931-.02587,.01391-.04493,.02384-.09604,.04084-.13263,.07392-.02517,.02275-.07228,.05134-.04222,.10514,.00402,.00719-.01242,.03704-.02316,.03944-.07643,.01705,.02517,.03378-.00073,.04899Z" style="fill:#29a738;"/><path d="M1.82005,1.75936c-.05079-.07633-.05108-.10192,.02532-.16458,.08717-.0715,.17663-.14256,.2738-.19875,.07905-.04571,.15723-.08802,.21521-.16019,.00413-.00514,.00869-.01062,.01427-.0138,.04364-.0249,.10769,.01815,.14124-.04654,.02797-.05394,.07549-.0643,.13337-.04696,.01359,.00407,.03968-.00767,.04927-.02031,.06647-.08749,.16353-.10104,.26148-.12313,.04702-.01061,.08075-.06519,.13697-.07019,.02137-.0019,.04243-.00736,.06658-.01173-.00573-.01552-.0113-.03057-.01686-.04563,.05309,.01535,.10618,.03071,.15927,.04606-.01265,.01565-.0221,.03781-.03849,.04586-.08496,.04174-.17088,.08182-.25806,.11869-.07858,.03324-.16014,.05948-.23854,.09311-.03225,.01383-.0572,.04574-.08978,.05752-.07227,.02613-.13242,.07488-.20478,.10227-.02859,.01082-.04137,.05215-.09154,.04565-.02476-.00321-.05355,.04263-.08399,.0603-.03242,.01882-.02119,.07538-.07535,.07654-.0254,.00055-.05804,.01623-.07358,.03594-.0203,.02575-.01878,.07087-.04129,.0922-.03461,.0328-.08079,.05409-.12371,.07721-.03976,.02142-.06278,.0473-.04171,.09425l-.09911-.04379Z" style="fill:#35a937;"/><path d="M1.5192,1.62554c.0259-.01521-.0757-.03194,.00073-.04899,.01075-.0024,.02718-.03225,.02316-.03944-.03006-.0538,.01705-.08238,.04222-.10514,.03659-.03307,.0877-.05007,.13263-.07392,.00866-.0046,.01848-.00778,.02587-.01391,.06317-.05242,.12192-.11141,.19003-.15622,.05363-.03528,.11914-.05215,.17848-.07918,.13857-.06312,.27558-.12979,.42333-.17031,.01346-.00369,.02353-.01941,.03543-.02923,.0148-.01222,.03216-.03649,.04446-.0342,.10329,.01916,.17282-.06514,.26352-.08213,.00087-.00016,.00063-.00623,.00091-.00954,.01971,.00408,.04005,.00632,.05898,.01272,.02114,.00714,.04102,.01804,.06144,.02731-.00266,.01217-.0022,.03299-.00844,.03524-.13493,.04866-.27082,.09466-.40606,.14249-.05935,.02099-.10095,.08797-.17621,.06814-.0377,.07371-.11092,.06713-.17633,.08018-.00951,.0019-.01437,.02295-.02317,.03367-.01143,.01391-.0238,.03669-.03724,.03779-.11583,.0095-.17523,.12748-.28546,.14572-.01041,.07137-.08155,.0484-.11602,.07627-.04856,.03926-.08265,.0975-.1193,.15015-.04081,.05862,.02705,.07633,.04659,.11227-.05985-.02658-.1197-.05316-.17955-.07974Z" style="fill:#2da837;"/><path d="M4.29666,2.14004c-.02172,.01347-.04923,.02237-.0641,.04124-.05091,.06454-.05971,.06836-.1583,.07067-.01635,.00038-.0341,.02701-.04733,.04444-.00868,.01143-.01041,.02814-.01525,.04249-.01483-.01437-.02966-.02873-.04568-.04424-.01706,.0066,.01367,.04762-.04704,.04522-.07384-.00292-.15149,.04547-.23496,.03138-.00812-.00137-.02083,.01525-.02906,.02542-.02296,.02835-.03147,.08121-.08841,.04877-.00363-.00207-.01685,.00357-.01684,.00557,.00048,.06877-.05844,.03402-.08693,.05138-.03621,.02206-.06793,.05138-.10347,.0747-.0096,.0063-.02601,.00223-.03929,.00292,.02565-.02911,.05137-.05814,.07692-.08734,.0262-.02995,.03779-.06056,.00331-.09275,.01329-.01988,.02659-.03977,.03988-.05965,.00664-.00674,.01328-.01348,.01992-.02023,.00665-.00004,.01331-.00005,.01996-.00004,.04588,.02508,.07753-.00263,.10171-.03381,.06234-.08041,.14173-.13169,.23913-.15896,.01663-.00466,.02873-.02464,.04363-.03666,.00935-.00754,.02603-.02131,.02922-.01888,.04446,.03381,.07238-.00765,.10751-.0197,.04101-.01407,.09347-.041,.1249-.0268,.05891,.02662,.11078,.02108,.1747-.0028v.07967c-.00138,.01266-.00276,.02531-.00413,.03797Z" style="fill:#42301e;"/><path d="M3.03995,1.81997c.04373-.00115,.10393,.01523,.12774-.00713,.0486-.04564,.06764-.00475,.10342,.01215,.01761-.01561,.03861-.03421,.06137-.05438,.04194,.02941,.08486,.04406,.13565,.01285,.01942-.01193,.04986-.01637,.07212-.01103,.04428,.01061,.08874,.03769,.10316-.03479,.03811,.034,.06899-.0344,.11372-.00531,.02636,.01714,.07052,.00689,.12062,.00976-.02245-.01616-.03367-.02423-.0524-.03771,.07491-.01574,.14431-.02912,.21304-.04529,.03098-.00729,.06112-.01898,.09072-.03096,.0173-.007,.03953-.0307,.04798-.02602,.05192,.02878,.06639-.04574,.0906-.03764,.07308,.02445,.03927-.05148,.06899-.06379-.01367,.0531,.054,.10622-.00002,.15932-.01234,.00389-.02744,.00449-.03658,.01218-.08064,.06787-.17278,.1022-.27814,.11056-.09333,.0074-.18717,.01886-.27835,.03937-.06423,.01445-.13861,.01441-.18359,.07789-.06135,.00761-.12252,.01759-.1841,.02213-.05625,.00415-.12103-.02198-.154,.05178-.00069,.00155-.01757-.00444-.027-.00643-.04216-.0089-.08435-.01762-.13326-.0278-.00379,.01068-.01102,.03109-.02135,.0602-.07268-.03295-.14649-.06641-.2203-.09987,.00001-.00665,.00002-.0133,.00002-.01996l.16003-.06002c.01997-.00002,.03994-.00003,.05991-.00005Z" style="fill:#20a638;"/><path d="M2.78089,.73786c-.01954,.01033-.03809,.02664-.05876,.03003-.14541,.02381-.27213,.09967-.40957,.14562-.08343,.02789-.1684,.04373-.24756,.09979-.0682,.0483-.14064,.12667-.24541,.10931-.00528-.00087-.01346,.00393-.01739,.00856-.06827,.08019-.18453,.08527-.25518,.16389-.01688,.01878-.03843,.06286-.08028,.02915-.00501,.00869-.00892,.0183-.01524,.02589-.02403,.02888-.04258,.05592-.08799,.06788-.03401,.00896-.09575,.03593-.08351,.102-.04068-.01828-.08136-.03655-.12204-.05483,.00068-.00838,.00136-.01677,.00205-.02515,.04776-.07974,.12823-.13272,.20184-.17109,.07447-.03882,.12939-.13284,.23362-.11017,.00338,.00074,.01113-.00626,.0126-.01098,.01659-.05317,.06865-.03863,.10418-.05546,.03608-.01709,.07185-.03484,.10776-.0523,0-.00667,0-.01333,0-.02,.0362-.01295,.07365-.02321,.10838-.03934,.09964-.04628,.19694-.09778,.29761-.14159,.06035-.02627,.12437-.04593,.1885-.06111,.04616-.01093,.05016-.03774,.04552-.07463,.09327-.05178,.17999,.00471,.26928,.01692,.01768,.00242,.03443,.01157,.05161,.01762Z" style="fill:#25a738;"/><path d="M2.98004,1.82002c-.05334,.02001-.10669,.04001-.16003,.06002-.0002-.01987,.00743-.04566-.0022-.05841-.0212-.02807-.05611-.04621-.0755-.07507-.01061-.01579-.00799-.06222,.00056-.06571,.07168-.02929,.10131-.09537,.14625-.16451,.00343,.02697,.00522,.04105,.00702,.05513,.03896-.06938,.15463-.05548,.16691-.15378,.07057-.00564,.12185-.04858,.18008-.08312,.07224-.04284,.15733-.06403,.23687-.09457,.07956-.00667,.15923-.01222,.23861-.02052,.0341-.00356,.06761-.01281,.10139-.01948,.05146-.00003,.10318,.00279,.15424-.00177,.01612-.00144,.03049-.0226,.04566-.03474,.02699,.01142,.05398,.02284,.08097,.03425-.04983,.05883-.12101,.02631-.18086,.04225-.12687-.0065-.24913,.01308-.35781,.08082-.03218,.02006-.05629,.0391-.09841,.04496-.05393,.0075-.10413,.04289-.15515,.06787-.00335,.00164,.00309,.01854-.00042,.02569-.00576,.01172-.01399,.02437-.02466,.03112-.02599,.01646-.05308,.03187-.08133,.04394-.07244,.03097-.08771,.14215-.1884,.13396-.00399-.00032-.00923,.01513-.01393,.02321-.0216,.03708-.04321,.07416-.06755,.11592,.01709,.00449,.03239,.00851,.04769,.01252Z" style="fill:#40ab35;"/><path d="M4.21669,3.35974c.02389,.12665-.00265,.20746-.14144,.26695-.20793,.08911-.39983,.21557-.59901,.32531-.01006,.00554-.02442,.00329-.03677,.00466l-.04294-.01784c.02087-.01533,.04497-.02781,.06174-.04677,.01769-.02001,.02839-.0462,.04214-.06969,.02126-.00719,.04342-.01247,.06361-.02195,.05482-.02575,.11646-.04487,.15951-.08407,.01842-.01677-.00259-.07684-.00569-.11723-.00008-.0131-.00016-.02619-.00025-.03929,.00014-.01296,.00027-.02593,.00041-.03889l.00389-.02089c.05106,.00231,.10212,.00587,.15319,.0061,.01341,.00006,.02656-.01117,.04036-.01549,.05954-.01866,.09312-.06329,.11789-.11675,.01445-.0312,.03042-.06145,.07252-.05005,.03744,.01014,.07393,.02379,.11084,.0359Z" style="fill:#37281b;"/><path d="M.68334,1.54001c.06293-.01257,.09165,.04115,.09911,.07777,.02077,.1019,.10016,.1475,.16984,.20177,.03747,.02919,.08741,.04188,.1301,.06499,.044,.02382,.08506,.05313,.12927,.0765,.03211,.01697,.06882,.02529,.10079,.04246,.11611,.06235,.22527,.14773,.35343,.17424,.13342,.0276,.23333,.12568,.36698,.14549,.0892,.01322,.17804,.04954,.25987-.02354,.01003-.00896,.03358-.00276,.05087-.00359-.0108,.06364,.05711,.07887,.07631,.12406-.06881-.00664-.13749-.01548-.20645-.01947-.16735-.00968-.32282-.05602-.46954-.13746-.04245-.02356-.09082-.04882-.1441-.0234l-.05976,.00006h.00003c-.01338-.00655-.02676-.01311-.04014-.01967-.0066-.00011-.0132-.00021-.0198-.00029-.02001-.00669-.04003-.01338-.06004-.02007v.00005c-.01336-.00666-.02672-.01331-.04009-.01997l.00004,.00003c-.02663-.01341-.05326-.02681-.07989-.04022-.00009-.00647-.00021-.01295-.00038-.01942,.00483-.07966-.06925-.0751-.11172-.09916-.16804-.0952-.3499-.17017-.462-.34139-.00729-.01114-.0282-.01335-.04278-.01972,.00002-.04001,.00003-.08002,.00005-.12004Z" style="fill:#1b4721;"/><path d="M2.46333,3.91973v-.32015c.06838-.0473,.04793,.03047,.06848,.05125,.05088-.01709,.10552-.0555,.14863-.04529,.06641,.01574,.09689-.00642,.11946-.05512,.0355,.02552,.06616,.04756,.09681,.06961,.00098,.03878,.00203,.07756,.00291,.11634,.0012,.05318,.00227,.10637,.0034,.15956-.00171,.05471-.00342,.10942-.00513,.16413-.01263-.01878-.03437-.03674-.03614-.05649-.00498-.0555-.00174-.11174-.00174-.17386-.02842,.0023-.06875-.00383-.07447,.00752-.04333,.08583-.11989,.07324-.1934,.07468-.04298,.00084-.08589,.00511-.12883,.00784Z" style="fill:#392a1c;"/><path d="M2.46333,3.91973c.04294-.00273,.08585-.007,.12883-.00784,.07351-.00144,.15007,.01116,.1934-.07468,.00573-.01134,.04605-.00522,.07447-.00752,0,.06212-.00324,.11836,.00174,.17386,.00177,.01975,.02351,.03771,.03614,.05649,.00172,.00626,.00316,.01258,.00433,.01897,.00592,.01474,.01185,.02949,.01777,.04423-.01961,.05288-.04868,.07468-.09802,.02982-.09922,.02684-.20206,.04508-.29598,.08455-.04036,.01696-.04125-.01796-.06268-.01734v-.30054Z" style="fill:#37281a;"/><path d="M2.46333,4.22027c.02143-.00062,.02233,.0343,.06268,.01734,.09392-.03947,.19675-.05771,.29598-.08455,.04934,.04486,.07841,.02307,.09802-.02982,.06758-.02189,.13515-.04379,.20273-.06568l.13653-.06076c.04575-.01933,.09151-.03866,.13726-.05799,.01431,.00595,.02863,.0119,.04294,.01784-.32145,.17747-.6429,.35495-.97614,.53893v-.27532Z" style="fill:#35271a;"/><path d="M4.21669,3.35974c-.03691-.0121-.0734-.02576-.11084-.0359-.0421-.0114-.05807,.01885-.07252,.05005-.02476,.05346-.05834,.09809-.11789,.11675-.0138,.00433-.02695,.01555-.04036,.01549-.05107-.00023-.10213-.00379-.15319-.0061-.00073-.01924-.00145-.03848-.00218-.05771,.01282-.04081,.02565-.08162,.03847-.12243,.00728-.01996,.01456-.03992,.02184-.05988,.10146-.03835,.20975-.0652,.30166-.11968,.04955-.02937,.06366,.03061,.09314,.01003,.0256-.01788,.00546-.07768,.06184-.07034,.00108,.06927,.00421,.1386,.00211,.20777-.00073,.02418-.01435,.04798-.02208,.07195Z" style="fill:#392a1c;"/><path d="M2.46003,2.62002c0,.09333,0,.18666,.00001,.27998v.29997c.01344,.02311,.02431,.06311,.04086,.06562,.02987,.00453,.06314-.01337,.09436-.02174,.00647,.01131,.01697,.02968,.02939,.05141,.02429-.11585,.08334-.07645,.13834-.03499,.01528-.0282,.02704-.04989,.04909-.09058,.00718,.08542,.05059,.09699,.10565,.0896,.00072,.02012,.00142,.04023,.00212,.06034l-.01643,.0819c-.00207,.01282-.00415,.02564-.00622,.03846-.05382,.01222-.10746,.0335-.16151,.03462-.09065,.00188-.18156-.00907-.27236-.01463-.00742-.05916-.01485-.11832-.02227-.17748-.00037-.14751-.00073-.29501-.00109-.44252,.00011-.08002,.00023-.16003,.00034-.24005,.00654,.00007,.01307,.00011,.01961,.00012,.00006,.00665,.0001,.0133,.00012,.01995Z" style="fill:#3b2b1c;"/><path d="M3.80001,2.78c-.03099-.11951,.07855-.13199,.13965-.17862,.0362-.02762,.08775-.02859,.12815-.04374,.03872-.01452,.07671-.04353,.12062-.05728,.03058-.00957,.05891-.02635,.08824-.03991,.001,.08071,.00287,.16143,.00213,.24213-.00012,.01323-.01172,.02635-.01801,.03952-.00486-.03356-.00972-.06712-.01655-.1143-.02652,.02-.05982,.03752-.05772,.04472,.01709,.05866-.04357,.07439-.05987,.12021-.01504-.03317-.02818-.06216-.04243-.0936-.01675,.0039-.02913,.00876-.04172,.00941-.08663,.00445-.14778,.09504-.24249,.07145Z" style="fill:#3e2d1c;"/><path d="M4.30079,2.10207v-.07967c-.06391,.02388-.11579,.02942-.1747,.0028-.03142-.0142-.08388,.01274-.1249,.0268-.03513,.01205-.06306,.05351-.10751,.0197-.00319-.00243-.01987,.01134-.02922,.01888-.0149,.01202-.027,.032-.04363,.03666-.0974,.02727-.17679,.07855-.23913,.15896-.02417,.03118-.05583,.05888-.1017,.03381,.00008-.00665,0-.0133-.00026-.01995,.00025-.0065,.00042-.01301,.00051-.01952l.13982-.16037c.00665-.00672,.01331-.01343,.01996-.02015h0c.02007-.0266,.04013-.05322,.0602-.07984,.00669-.00661,.01338-.01321,.02008-.01982,.0199-.00012,.0398-.00025,.0597-.00037,.04959,0,.09936,.00259,.14873-.00076,.04402-.00298,.0876-.01252,.13137-.01917,.05433-.00667,.1088-.01241,.16295-.02036,.03147-.00462,.06241-.01279,.09359-.01936l-.01585,.16173Z" style="fill:#43331e;"/><path d="M1.82,1.02c0,.00667,0,.01333,0,.02-.03885,.00647-.07748,.01527-.11659,.01884-.0517,.00472-.10538-.00168-.15521,.00977-.04701,.0108-.08938,.05261-.13516,.05506-.05097,.00273-.06913,.03756-.10115,.05982-.03013,.02094-.05032,.05594-.10255,.04306-.01919-.00473-.04878,.05322-.08004,.07177-.03922,.02327-.06869,.0492-.07864,.09986,.03581,.0137,.07258,.02776,.10935,.04182-.00068,.00838-.00136,.01677-.00205,.02515-.05974-.02667-.11948-.05334-.17922-.08002-.03362-.03124-.04636-.06149,.00059-.09314,.0347-.02339,.06479-.05628,.10234-.072,.03613-.01512,.07353-.0572,.09546-.05324,.04564,.00825,.03663-.05457,.08533-.0444,.02588,.00541,.06461-.05068,.09753-.07902,.01927-.00805,.03855-.01609,.05782-.02414,.08595,.00027,.17193-.001,.25783,.0012,.1015,.00261,.16681-.0458,.20439-.13705,.01998-.00668,.03997-.01335,.05995-.02003-.01664,.03057-.03009,.06356-.05085,.09101-.01892,.02501-.04577,.04401-.06912,.06566Z" style="fill:#1fa538;"/><path d="M3.80001,2.78c.09471,.02359,.15586-.067,.24249-.07145,.0126-.00065,.02497-.0055,.04172-.00941,.01425,.03145,.02739,.06043,.04243,.0936,.0163-.04583,.07696-.06155,.05987-.12021-.0021-.00721,.03119-.02472,.05772-.04472,.00683,.04717,.01169,.08073,.01655,.1143-.00137,.01249-.00274,.02499-.00411,.03748-.01223,.00275-.03493,.00504-.03507,.0083-.00158,.03701-.00807,.05966-.05343,.03866-.00868-.00402-.02697,.01253-.04075,.01973-.02684,.014-.05649,.02445-.07992,.04283-.0695,.05452-.18279,.00842-.22968,.10479,.01217,.0044,.02837,.01027,.04458,.01614-.00077,.00335-.00153,.00671-.0023,.01006h-.07936c-.00016-.01297-.00541-.02905,.00032-.03841,.03956-.06462,.01689-.13417,.01894-.20167Z" style="fill:#3d2d1d;"/><path d="M4.23666,3.08002c-.05638-.00735-.03624,.05246-.06184,.07034-.02948,.02058-.04359-.03939-.09314-.01003-.09191,.05448-.20019,.08132-.30166,.11968,.00015-.06004,.0003-.12007,.00044-.18011,.0132,.00013,.03887-.03089,.0344,.01452-.00076,.00777,.00879,.01767,.01572,.02439,.00203,.00197,.01661-.00347,.01669-.0058,.00313-.09667,.07786-.05845,.12632-.0659,.04446-.00683,.08106-.01686,.07821-.07279-.00011-.00213,.00934-.00475,.01543-.00767,.00801,.01485,.01602,.0297,.01606,.02977,.05157-.0217,.09555-.0402,.15751-.06627v.112c-.00138,.01262-.00276,.02525-.00414,.03787Z" style="fill:#3b2b1c;"/><path d="M1.35999,1.04333c-.03293,.02833-.07166,.08442-.09753,.07902-.0487-.01018-.03969,.05265-.08533,.0444-.02192-.00396-.05933,.03812-.09546,.05324-.03756,.01572-.06764,.04861-.10234,.072-.04696,.03165-.03421,.0619-.00059,.09314-.09355-.04726-.1871-.09452-.28065-.14179,.19271-.06107,.38532-.12249,.57826-.18282,.02703-.00845,.05572-.01159,.08363-.01719Z" style="fill:#20a438;"/><path d="M2.46332,3.46c.0908,.00555,.18171,.01651,.27236,.01463,.05405-.00112,.10769-.0224,.16151-.03462-.00016,.06001-.00032,.12001-.00047,.18002-.03066-.02204-.06131-.04408-.09681-.06961-.02257,.0487-.05305,.07086-.11946,.05512-.04312-.01022-.09776,.02819-.14863,.04529-.02056-.02077-.0001-.09855-.06849-.05125,0-.04653,0-.09306,0-.13958Z" style="fill:#3a2b1c;"/><path d="M4.2408,3.04215v-.112c-.06196,.02607-.10594,.04457-.15751,.06627-.00004-.00007-.00805-.01492-.01606-.02977-.00609,.00292-.01553,.00554-.01543,.00767,.00285,.05593-.03375,.06596-.07821,.07279-.04846,.00745-.1232-.03077-.12632,.0659-.00008,.00233-.01465,.00777-.01669,.0058-.00692-.00672-.01648-.01662-.01572-.02439,.00447-.04541-.0212-.0144-.0344-.01452l.00028-.05981h.07936c.00077-.00335,.00153-.00671,.0023-.01006-.01621-.00587-.03241-.01174-.04458-.01614,.04689-.09637,.16018-.05027,.22968-.10479,.02342-.01837,.05307-.02883,.07992-.04283,.01379-.00719,.03207-.02375,.04075-.01973,.04536,.021,.05185-.00165,.05343-.03866,.00014-.00326,.02285-.00556,.03507-.0083-.00529,.08752-.01059,.17505-.01588,.26257Z" style="fill:#3c2c1c;"/><path d="M4.3366,1.80058c-.01824,.0326-.03649,.06521-.05473,.09781-.06729,.01385-.13458,.0277-.20187,.04155-.00723,.00605-.01446,.01211-.02169,.01816-.01272,.001-.02545,.00199-.03817,.00299l-.24083,.01831s.00053,.00038,.00053,.00038c-.01981,.00039-.03962,.00077-.05943,.00116-.01997,.01311-.03995,.02622-.05992,.03933-.00683,.01325-.01365,.02651-.02048,.03976-.01995,.02007-.03991,.04013-.05986,.0602-.03681-.05534-.02448-.10718,.02906-.13597,.0656-.03527,.1373-.07561,.20865-.08052,.17838-.01227,.35435-.02507,.51873-.10316Z" style="fill:#267832;"/><path d="M.6833,1.66005c.01457,.00637,.03548,.00858,.04278,.01972,.11211,.17122,.29396,.24619,.462,.34139,.04247,.02406,.11655,.0195,.11172,.09916-.06509-.01951-.13288-.03288-.19457-.06008-.07761-.03422-.15023-.07975-.22501-.1204-.02671-.01998-.05343-.03996-.08014-.05994l.00002,.00003c-.00667-.00667-.01335-.01334-.02002-.02001l.00002,.00002c-.00668-.00667-.01335-.01334-.02003-.02001h.00002c-.00741-.00631-.01483-.01262-.02224-.01893l.00115,.00113c-.00522-.00727-.01045-.01455-.01567-.02182-.01334-.04675-.02668-.09351-.04002-.14026Z" style="fill:#1b3e1f;"/><path d="M1.82,1.02c.02335-.02165,.05021-.04066,.06912-.06566,.02076-.02745,.03422-.06044,.05085-.09101,.17334-.05333,.34668-.10667,.52003-.16,.00464,.03689,.00063,.0637-.04552,.07463-.06413,.01518-.12814,.03484-.1885,.06111-.10067,.04381-.19797,.09531-.29761,.14159-.03473,.01613-.07217,.0264-.10838,.03934Z" style="fill:#21a638;"/><path d="M.88021,1.93983c.07478,.04065,.1474,.08618,.22501,.1204,.0617,.0272,.12949,.04057,.19457,.06008,.00016,.00647,.00029,.01295,.00038,.01942,.00661,.01342,.01322,.02685,.01983,.04027,.01334,.01332,.02667,.02665,.04001,.03997-.04438-.0087-.09096-.01149-.13274-.02712-.17688-.06617-.33667-.16402-.48947-.27384-.00003-.02664-.00007-.05329-.0001-.07993,.00746,.00028,.01492,.00056,.02238,.00084,0,0-.00002,0-.00002,0,.00668,.00667,.01335,.01334,.02003,.02001l-.00002-.00002c.00667,.00667,.01335,.01334,.02002,.02001l-.00002-.00003c.02671,.01998,.05343,.03996,.08014,.05994Z" style="fill:#172116;"/><path d="M4.3366,1.80058c-.16438,.07809-.34035,.09089-.51873,.10316-.07135,.00491-.14306,.04525-.20865,.08052-.05355,.02879-.06587,.08062-.02907,.13597-.02702,.03309-.05404,.06618-.08106,.09927-.03309,.00008-.06618,.00016-.09927,.00024,.01225-.02209,.02421-.04435,.03682-.06624,.01419-.02464,.02896-.04894,.04348-.07339,.01896-.01781,.0421-.03283,.05614-.05391,.06079-.09129,.14464-.13771,.25365-.14716,.11376-.00986,.2277-.0216,.3402-.04059,.07019-.01185,.13785-.03866,.20665-.05875-.00005,.00696-.00011,.01392-.00016,.02088Z" style="fill:#1e8d37;"/><path d="M3.55999,1.9c.04498-.06348,.11936-.06344,.18359-.07789,.09118-.02051,.18502-.03197,.27835-.03937,.10537-.00835,.1975-.04269,.27814-.11056,.00914-.00769,.02424-.00829,.03658-.01218l.00006,.07997c-.02211,.00513-.04704,.00536-.06585,.01621-.09986,.05765-.21257,.07418-.32187,.08017-.1359,.00746-.26632,.02265-.38898,.08368l-.00003-.02003Z" style="fill:#1da339;"/><path d="M3.56002,1.92003c.12266-.06103,.25308-.07622,.38898-.08368,.1093-.006,.22201-.02253,.32187-.08017,.0188-.01085,.04374-.01108,.06585-.01621l.00005,.03974c-.0688,.0201-.13646,.0469-.20665,.05875-.1125,.01899-.22644,.03073-.3402,.04059-.10901,.00945-.19286,.05587-.25365,.14716-.01404,.02108-.03719,.0361-.05614,.05391-.0067-.00003-.0134-.00006-.0201-.00009-.00002-.00668-.00004-.01337-.00006-.02005,.02669-.03999,.05338-.07997,.08007-.11996,.00666-.00666,.01333-.01333,.01999-.01999Z" style="fill:#1d9e39;"/><path d="M1.88002,.88335c-.03757,.09125-.10288,.13965-.20439,.13705-.0859-.00221-.17188-.00094-.25783-.0012,.15407-.04528,.30814-.09056,.46221-.13584Z" style="fill:#23a238;"/><path d="M4.02014,1.96109c.01272-.001,.02545-.00199,.03817-.00299,.00723-.00605,.01446-.01211,.02169-.01816,.06729-.01385,.13458-.0277,.20187-.04155,.02949-.00085,.04542,.00953,.03477,.04195-.03118,.00657-.06213,.01474-.09359,.01936-.05415,.00795-.10862,.01369-.16295,.02036-.0134-.00004-.0268-.00009-.0402-.00013,.00007-.00628,.00015-.01256,.00024-.01883Z" style="fill:#3d401f;"/><path d="M.72331,1.80031c.00522,.00727,.01045,.01455,.01567,.02182-.00522-.00727-.01045-.01455-.01567-.02182Z" style="fill:#182b19;"/><path d="M.76007,1.83992c-.00746-.00028-.01492-.00056-.02238-.00084,.00252-.00601,.00257-.01204,.00014-.01809,.00741,.00631,.01483,.01262,.02224,.01893Z" style="fill:#182b19;"/><path d="M2.44074,2.57965c-.01338-.01319-.02676-.02639-.04015-.03958,.01239-.01315,.02477-.0263,.03716-.03945,0,0,.00373-.00113,.00373-.00113,.02952,.01319,.0582,.0351,.0887,.038,.10963,.01042,.21987,.01442,.32988,.02085,.03329,0,.06657,0,.09986,0,.07603,.00646,.14572,.00042,.21146-.05085,.04885-.0381,.11195-.05791,.16871-.08587-.00019,.01943-.00039,.03886-.00058,.05829-.03978,.03327-.07957,.06654-.11935,.0998-.01711,.00174-.03498,.00088-.05121,.00562-.10992,.0321-.21708,.06197-.33645,.03877-.1286-.025-.261-.03046-.39175-.04445Z" style="fill:#354920;"/><path d="M2.43775,2.50062c-.01239,.01315-.02477,.0263-.03716,.03945-.11352-.0067-.22704-.01341-.34056-.02011-.02077-.00637-.04154-.01275-.06232-.01912-.01182-.00002-.02363-.00003-.03545-.00005-.07082-.02883-.14298-.05484-.21193-.08759-.03944-.01873-.07366-.04844-.11023-.07321,.02662-.00663,.05324-.01326,.07987-.0199,.01273,.00302,.02651,.00387,.03805,.00939,.19446,.09297,.39497,.16001,.6147,.15154,.02139-.00082,.04334,.01272,.06503,.0196Z" style="fill:#182718;"/><path d="M2.44074,2.57965c.13074,.01399,.26315,.01945,.39175,.04445,.11936,.0232,.22653-.00667,.33645-.03877,.01623-.00474,.0341-.00389,.05121-.00562-.12675,.08655-.26845,.0914-.41318,.07262-.11599-.01505-.23139-.03467-.34706-.05226-.00654,0-.01307-.00004-.01961-.00012,.00015-.00677,.0003-.01354,.00044-.02031Z" style="fill:#3b391d;"/><path d="M1.71997,2.32009c-.02662,.00663-.05324,.01326-.07987,.0199-.05337-.02666-.10674-.05332-.1601-.07998-.02001-.00666-.04001-.01332-.06002-.01997h-.00001v-.02001s.00005-.00004,.00005-.00004l.06014-.00007c.0066,.00008,.0132,.00018,.0198,.00029,.01338,.00656,.02676,.01312,.04014,.01968h-.00003c.05999,.02667,.11998,.05335,.17997,.08004l-.00007,.00017Z" style="fill:#182819;"/><path d="M1.36001,2.21997c-.01334-.01332-.02667-.02665-.04001-.03997,.02002-.00002,.04005-.00004,.06007-.00006l-.00004-.00003c.01336,.00666,.02673,.01331,.04009,.01997v-.00005c-.00004,.00671-.00007,.01343-.00011,.02014l-.00004,.00004c-.01334,0-.02667,0-.04001,.00001-.00665-.00002-.0133-.00004-.01996-.00006Z" style="fill:#182819;"/><path d="M1.99771,2.50084c.02077,.00637,.04154,.01275,.06232,.01912-.02029-.00075-.04058-.00149-.06087-.00224,.00083-.00574,.00035-.01137-.00144-.01688Z" style="fill:#171c14;"/><path d="M1.41998,2.24003c.02001,.00666,.04001,.01332,.06002,.01997-.02001-.00666-.04001-.01332-.06002-.01997Z" style="fill:#172116;"/><path d="M1.37997,2.22003c.01334,0,.02667,0,.04001-.00001v.02001c-.01335-.00667-.02668-.01333-.04001-.02Z" style="fill:#172116;"/><path d="M1.99926,3.12076q.04189,.06622-.06543,.13802c.01958,.05469,.00235,.12691-.04239,.15733-.01209,.00822-.03584,.0061-.05088,.00018-.00703-.00277-.01166-.02785-.0076-.03935,.0096-.02715,.02428-.05266,.03839-.078,.01433-.02572,.04697-.05365,.04282-.07502-.01526-.07851,.04556-.07811,.08508-.10316Z" style="fill:#191411;"/><path d="M3.82,1.2c-.03378,.00667-.06728,.01591-.10139,.01948-.07939,.0083-.15906,.01385-.23861,.02052-.0605-.00523-.12553-.03797-.17289,.03339-.00621,.00935-.03269,.00289-.04713,.00954-.06884,.03168-.13671,.06548-.20504,.09827-.02676,.01284-.05326,.03324-.08095,.03524-.0293,.00211-.04191,.01556-.06343,.029-.04853,.03031-.08688,.06283-.11912,.109-.00643,.00921-.04097-.00122-.03912-.0011-.08419,.01,.03667,.07259-.04428,.07653-.06799,.00331-.08211,.0653-.12012,.10097-.02423,.02274-.02981,.07099-.08098,.05497-.0028-.00088-.0134,.01069-.01395,.01702-.00537,.06158-.05339,.07289-.10542,.0844,.04206,.042-.02193,.10089,.03139,.13752-.05988-.02646-.11976-.05292-.17964-.07938-.02029-.01543-.04012-.03151-.06095-.04617-.04776-.03362-.05099-.05574-.01182-.0952,.06947-.06998,.13889-.14002,.20928-.20907,.01378-.01352,.03084-.02469,.04816-.03341,.05747-.0289,.1081-.06526,.15975-.10457,.0812-.06181,.18619-.09216,.28046-.13717,.02737-.01307,.05573-.02711,.07822-.04686,.11048-.09705,.22875-.17706,.38028-.19277,.04659-.00483,.09107,.00307,.11015,.04864,.0274,.06543,.08291,.06822,.13761,.07037,.08307,.00327,.16636,.00086,.24955,.00086Z" style="fill:#3caa36;"/><path d="M3.54003,1.94001c-.02669,.03999-.05338,.07997-.08007,.11996-.08008,.08344-.1593,.16772-.24051,.25003-.06303,.06389-.06413,.0628-.13224-.00317-.01206,.01062-.02404,.02181-.03668,.03218-.05724,.04694-.11671,.08306-.19687,.06185-.04304-.01139-.08888-.01178-.13264-.02099-.03353-.00706-.06681-.02959-.09406,.01093-.05271-.06228-.12844,.01283-.18426-.03088,.00002-.07332,.00003-.14665,.00005-.21997,.07937-.02535,.15706-.03622,.22953,.02075,.00735,.00578,.02328,.00444,.03395,.00159,.05444-.01453,.11108-.01057,.16634-.01787,.09778-.01291,.19852-.00126,.29765-.00669,.09754-.00534,.19339-.0217,.24979-.11774l.12003-.07999Z" style="fill:#1da339;"/><path d="M2.41896,2.02475c-.05331-.03664,.01067-.09552-.03139-.13752,.05203-.01151,.10006-.02282,.10542-.0844,.00055-.00633,.01115-.0179,.01395-.01702,.05117,.01602,.05675-.03223,.08098-.05497,.03801-.03568,.05213-.09766,.12012-.10097,.08094-.00394-.03991-.06653,.04428-.07653-.00185-.00012,.03269,.01031,.03912,.0011,.03224-.04617,.07059-.07869,.11912-.109,.02152-.01344,.03413-.02689,.06343-.029,.02769-.002,.05419-.0224,.08095-.03524,.06834-.03279,.1362-.06659,.20504-.09827,.01443-.00664,.04092-.00018,.04713-.00954,.04736-.07136,.11239-.03862,.17289-.03339-.07954,.03054-.16463,.05173-.23687,.09457-.05823,.03453-.10952,.07748-.18008,.08312-.01228,.0983-.12796,.0844-.16691,.15378-.00179-.01408-.00358-.02816-.00702-.05513-.04494,.06914-.07457,.13522-.14625,.16451-.00855,.00349-.01117,.04992-.00056,.06571,.01939,.02886,.0543,.047,.0755,.07507,.00963,.01275,.002,.03854,.0022,.05841,0,.00665,0,.0133-.00002,.01996-.10001,.03999-.20001,.07999-.30002,.11999-.02576,.01303-.05153,.02607-.07729,.0391-.00791-.01144-.01581-.02289-.02372-.03433Z" style="fill:#3fab36;"/><path d="M2.44268,2.05908c.02576-.01303,.05153-.02607,.07729-.0391,.02377,.00964,.04753,.06754,.06642,.0287,.02758-.05672,.04646-.00645,.06789-.00777,.02704-.00167,.0412,.04248,.08441,.00855,.02966-.02328,.09094-.00129,.13925-.00543,.06171-.00529,.14165,.01637,.18976,.00801,.11216-.01948,.22828-.00995,.33885-.04399,.00298-.00092,.0089,.00775,.01345,.01194-.0564,.09603-.15225,.1124-.24979,.11774-.09913,.00543-.19987-.00622-.29765,.00669-.05526,.0073-.1119,.00333-.16634,.01787-.01067,.00285-.02659,.00419-.03395-.00159-.07247-.05697-.15016-.04609-.22953-.02075l-.00006-.08088Z" style="fill:#1fa438;"/><path d="M2.44269,2.35993c.05582,.04371,.13155-.0314,.18426,.03088,.02725-.04052,.06054-.01799,.09406-.01093,.04376,.00922,.0896,.0096,.13264,.02099,.08016,.02121,.13963-.01491,.19687-.06185,.01265-.01037,.02462-.02156,.03668-.03218,.0681,.06597,.06921,.06706,.13224,.00317,.08121-.08232,.16043-.1666,.24051-.25003,.00002,.00668,.00004,.01337,.00006,.02005-.04523,.05692-.09234,.11246-.13535,.17101-.14253,.194-.33943,.24966-.56777,.22547-.10474-.0111-.20917-.02517-.31373-.03789l-.00581,.00213c.00178-.02694,.00356-.05388,.00533-.08082Z" style="fill:#17a039;"/><path d="M2.43775,2.50062c-.02169-.00688-.04363-.02042-.06503-.0196-.21973,.00847-.42024-.05857-.6147-.15154-.01154-.00552-.02531-.00637-.03805-.00939l.00007-.00017c-.04007-.0267-.08014-.0534-.12021-.0801,.05328-.02541,.10166-.00016,.1441,.0234,.14672,.08145,.30219,.12778,.46954,.13746,.06896,.00399,.13764,.01283,.20645,.01947,.00581,.00687,.01162,.01373,.01743,.0206l.00581-.00213c-.00016,.00679-.00032,.01359-.00048,.02038-.0004,.0135-.00081,.02699-.00121,.04049l-.00373,.00113Z" style="fill:#1b3b1e;"/><path d="M2.46005,3.19997v-.29997c.00615,.00248,.01349,.00852,.01828,.00691,.08541-.02862,.17468-.02182,.26232-.02966,.04202-.00376,.08389-.00919,.12592-.01275,.00925-.00078,.02138,.00782,.02799,.00428,.1105-.05931,.2353-.03097,.35232-.0537,.09037-.01755,.17287-.04319,.25676-.07645,.02569-.01019,.06387,.01112,.09634,.018-.04363,.02459-.08726,.04918-.13089,.07376-.08938,.04935-.17876,.09869-.26814,.14804-.09123,.00687-.16802,.04829-.24036,.10037-.01968,.00186-.03936,.00372-.05904,.00558,.00949-.01444,.01898-.02888,.03207-.04882-.02274-.00665-.0378-.01461-.053-.01488-.06378-.00114-.1293-.00865-.19079,.00344-.03974,.00781-.09625-.0013-.11803,.05309-.02201,.05497-.06526,.09025-.11174,.12276Z" style="fill:#3e2d1c;"/><path d="M3.75818,3.31989c-.01282,.04081-.02565,.08162-.03847,.12243-.02713-.03407-.05426-.06814-.08139-.10221,.00063-.02661,.00126-.05322,.0019-.07983,.02668-.08012,.05336-.16023,.08004-.24035,.00055-.00669,.00109-.01338,.00163-.02007,.04507,.0016,.03967,.03515,.03947,.06402-.00057,.08534-.00206,.17067-.00319,.256Z" style="fill:#928d8a;"/><path d="M2.45991,2.60007c.11566,.01759,.23106,.0372,.34706,.05226,.14473,.01878,.28644,.01393,.41318-.07262,.03978-.03327,.07957-.06654,.11935-.0998,.02024-.02666,.04049-.05332,.06073-.07999,.03448,.03218,.02289,.0628-.00331,.09275-.02554,.0292-.05127,.05823-.07692,.08734-.20858,.12082-.4297,.12248-.65743,.07187-.06659-.0148-.13498-.02146-.20254-.03186-.00002-.00665-.00006-.0133-.00012-.01995Z" style="fill:#3c361d;"/><path d="M3.41776,3.01929c.07888-.06601,.15742-.13244,.23685-.19779,.02719-.02237,.05661-.04201,.08502-.0629,.00163,.02568,.00728,.05191,.00393,.07693-.00473,.03529-.01613,.06969-.02468,.10448-.10037,.02643-.20074,.05286-.30111,.07929Z" style="fill:#ae6841;"/><path d="M3.41776,3.01929c.10037-.02643,.20074-.05286,.30111-.07929,.00101,.01996,.00202,.03991,.00303,.05987-.00055,.00669-.00109,.01338-.00163,.02007-.02853,.00442-.05788,.00595-.08543,.01382-.07203,.02058-.14327,.04392-.21482,.06617-.03332-.00679-.06664-.01358-.09995-.02037-.02738-.00684-.05475-.01369-.08213-.02053,.01911-.00633,.03842-.01212,.05727-.01914,.01565-.00583,.03076-.0131,.04611-.01973l-.00159,.00119c.02601-.00068,.05202-.00136,.07803-.00204Z" style="fill:#ad6742;"/><path d="M2.98004,1.82002c-.0153-.00402-.0306-.00804-.04769-.01252,.02434-.04176,.04595-.07883,.06755-.11592,.0047-.00808,.00994-.02353,.01393-.02321,.10069,.00818,.11596-.103,.1884-.13396,.02825-.01208,.05534-.02748,.08133-.04394,.01067-.00676,.0189-.0194,.02466-.03112,.00351-.00715-.00294-.02404,.00042-.02569,.05102-.02499,.10122-.06037,.15515-.06787,.04211-.00586,.06623-.0249,.09841-.04496,.10868-.06774,.23094-.08732,.35781-.08082-.07499,.02647-.15214,.04815-.22438,.08071-.07721,.0348-.15015,.07922-.22419,.12081-.02753,.01546-.05279,.03493-.07926,.05232-.02677,.01759-.0557,.03253-.08009,.05293-.02567,.02148-.04391,.0528-.07125,.07106-.02688,.01795-.05362,.02751-.05365,.06859,0,.00716-.05165,.01123-.07658,.02286-.01081,.00504-.01435,.02565-.024,.04473,.03671-.0055,.06507-.00975,.09342-.014-.04669,.02665-.09338,.0533-.14008,.07996-.01997,.00002-.03994,.00003-.05991,.00005Z" style="fill:#42ab35;"/><path d="M3.40023,2.39991c-.02024,.02666-.04049,.05332-.06073,.07998,.00019-.01943,.00039-.03886,.00058-.05829,.03296-.03416,.06591-.06831,.09887-.10247l.0015,.00133c-.00025,.0066-.00036,.01319-.00034,.0198-.01329,.01988-.02659,.03977-.03988,.05965Z" style="fill:#384820;"/><path d="M3.47974,2.30005c.00025,.00665,.00034,.0133,.00026,.01995-.00666-.00001-.01331,0-.01997,.00004l-.00013-.00017c.00661-.00661,.01323-.01321,.01984-.01982Z" style="fill:#394820;"/><path d="M3.44011,2.34027c-.00002-.0066,.00009-.0132,.00034-.0198,.00648-.00033,.01296-.00053,.01945-.0006l.00013,.00017c-.00664,.00674-.01328,.01348-.01992,.02023Z" style="fill:#394820;"/><path d="M3.42,2.02c-.00455-.0042-.01047-.01286-.01345-.01194-.11057,.03404-.22669,.02451-.33885,.04399-.04811,.00835-.12805-.0133-.18976-.00801-.04831,.00414-.10959-.01785-.13925,.00543-.04321,.03392-.05738-.01022-.08441-.00855-.02143,.00132-.04031-.04895-.06789,.00777-.01889,.03884-.04265-.01907-.06642-.0287,.10001-.04,.20001-.07999,.30002-.11999,.07381,.03346,.14762,.06692,.2203,.09987,.01032-.02911,.01756-.04952,.02135-.0602,.04891,.01018,.0911,.0189,.13326,.0278,.00943,.00199,.0263,.00799,.027,.00643,.03298-.07376,.09775-.04763,.154-.05178,.06157-.00454,.12275-.01452,.1841-.02213l.00003,.02003c-.00666,.00666-.01333,.01333-.01999,.01999l-.12003,.07999Z" style="fill:#1ea538;"/><path d="M1.16,1.44c-.03677-.01406-.07354-.02813-.10935-.04182,.00995-.05066,.03942-.07658,.07864-.09986,.03126-.01855,.06085-.0765,.08004-.07177,.05223,.01288,.07242-.02212,.10255-.04306,.03202-.02225,.05018-.05709,.10115-.05982,.04579-.00245,.08815-.04426,.13516-.05506,.04983-.01145,.10351-.00505,.15521-.00977,.03911-.00357,.07775-.01237,.11659-.01884-.03591,.01746-.07168,.03521-.10776,.0523-.03553,.01683-.08759,.00229-.10418,.05546-.00147,.00472-.00922,.01172-.0126,.01098-.10423-.02266-.15915,.07136-.23362,.11017-.07361,.03837-.15407,.09135-.20184,.17109Z" style="fill:#21a638;"/><path d="M3.63832,3.34011c.02713,.03407,.05426,.06814,.08139,.10221,.00073,.01924,.00145,.03848,.00218,.05771-.0013,.00696-.00259,.01393-.00389,.02089l-.01754,.03891c.00579,.01309,.01158,.02618,.01737,.03927,.0031,.04039,.0241,.10046,.00569,.11723-.04305,.0392-.10469,.05832-.15951,.08407-.02018,.00948-.04235,.01476-.06361,.02195-.04685-.00053-.0937-.00106-.14055-.0016,.00866-.03107,.01393-.06362,.02672-.09288,.02202-.05037,.04872-.0987,.07346-.14788,.02667-.04667,.05333-.09333,.08-.14,.01332-.02002,.02664-.04003,.03996-.06005,.01944-.01328,.03889-.02656,.05833-.03985Z" style="fill:#8e5d15;"/><path d="M3.35986,3.82076c.04685,.00053,.0937,.00106,.14055,.0016-.01375,.02349-.02445,.04968-.04214,.06969-.01677,.01896-.04086,.03144-.06174,.04677-.04575,.01933-.09151,.03866-.13726,.05799-.01296-.01853-.02592-.03706-.03888-.0556,.0345-.03962,.069-.07924,.1035-.11886,.01199-.00053,.02398-.00106,.03597-.00159Z" style="fill:#8c8b88;"/><path d="M3.70046,3.55983l.01754-.03891c-.00014,.01296-.00027,.02593-.00041,.03889-.00571,.00012-.01142,.00013-.01713,.00002Z" style="fill:#a05a36;"/><path d="M3.70046,3.55983c.00571,.00011,.01142,.00011,.01713-.00002,.00008,.0131,.00016,.02619,.00025,.03929-.00579-.01309-.01158-.02618-.01737-.03927Z" style="fill:#9c5730;"/><path d="M1.59983,2.23982c.04007,.0267,.08014,.0534,.12021,.0801-.05999-.02668-.11998-.05336-.17997-.08005l.05976-.00006Z" style="fill:#1a331c;"/><path d="M1.38007,2.17994c-.02002,.00002-.04005,.00004-.06007,.00006-.00661-.01342-.01322-.02685-.01983-.04027,.02663,.01341,.05326,.02681,.07989,.04022Z" style="fill:#192e1a;"/><path d="M1.42002,2.21998l.0001-.02014c.02001,.00669,.04003,.01338,.06004,.02007l-.06014,.00007Z" style="fill:#192e1a;"/><path d="M1.42012,2.19989c-.01336-.00666-.02673-.01331-.04009-.01997,.01336,.00666,.02673,.01331,.04009,.01997Z" style="fill:#192e1a;"/><path d="M1.5401,2.23988c-.01338-.00656-.02676-.01312-.04014-.01968,.01338,.00656,.02676,.01312,.04014,.01968Z" style="fill:#1a331c;"/><path d="M2.89672,3.62003c.00016-.06001,.00032-.12001,.00047-.18002,.00207-.01282,.00415-.02564,.00622-.03846,.00539-.00055,.01079-.00076,.01621-.00063l-.00045-.00074c.00655,.00828,.01309,.01656,.01964,.02485-.00074,.00485-.00013,.00953,.00184,.01402-.00009,.00693-.00018,.01385-.00027,.02078-.0068,.02331-.0188,.04647-.01949,.06996-.00263,.09067-.00164,.18145-.00199,.27218-.00253,.00459-.00505,.00918-.00758,.01377,.00226-.00488,.00451-.00976,.00677-.01464,.00718-.00036,.01436-.00072,.02154-.00108-.0122,.03197-.0244,.06394-.03659,.09591-.00113-.05319-.0022-.10637-.0034-.15956-.00088-.03878-.00194-.07756-.00291-.11634Z" style="fill:#8c8a86;"/><path d="M2.90304,3.89592c.0122-.03197,.0244-.06394,.03659-.09591,.0023-.00521,.00295-.01062,.00195-.01623,.00625-.01457,.01249-.02914,.01874-.04371,0,0-.00012,.00026-.00012,.00026,.00618-.0008,.01226-.00206,.01825-.00376-.00615,.05448-.0123,.10896-.01845,.16344-.01925,.05967-.03851,.11934-.05776,.17901-.00117-.00639-.00261-.01271-.00433-.01897,.00171-.05471,.00342-.10942,.00513-.16413Z" style="fill:#8b7018;"/><path d="M2.90224,4.07902c.01925-.05967,.03851-.11934,.05776-.17901,.04043-.00239,.09164,.02879,.11167-.03793,.00255-.00849,.02038-.01484,.0322-.01765,.0419-.00993,.08427-.01788,.13038-.0274-.01452-.02431-.02437-.04079-.03421-.05726,.04128,.02086,.08256,.04172,.12385,.06258-.0345,.03962-.069,.07924-.1035,.11886-.03255,.03879-.0651,.07757-.09765,.11635-.06758,.0219-.13515,.04379-.20273,.06569-.00592-.01474-.01185-.02949-.01777-.04423Z" style="fill:#8d6916;"/><path d="M3.12274,4.05756c.03255-.03878,.0651-.07757,.09765-.11635,.01296,.01853,.02592,.03706,.03888,.0556-.04551,.02025-.09102,.04051-.13653,.06076Z" style="fill:#888675;"/><path d="M2.46005,3.19997c.04648-.03251,.08973-.06779,.11174-.12276,.02178-.05439,.07829-.04528,.11803-.05309,.06149-.01209,.12701-.00458,.19079-.00344,.0152,.00027,.03027,.00823,.053,.01488-.0131,.01993-.02258,.03438-.03207,.04882-.02586,.06283-.00096,.11949,.02147,.17645l-.00531-.00155c-.05503,.0074-.09844-.00418-.10562-.08959-.02205,.04069-.03381,.06238-.04909,.09058-.055-.04146-.11405-.08086-.13834,.03499-.01243-.02174-.02293-.0401-.02939-.05141-.03122,.00837-.06449,.02626-.09436,.02174-.01655-.00251-.02742-.04252-.04085-.06562Z" style="fill:#3d2d1c;"/><path d="M2.94065,3.43904c-.00197-.0045-.00258-.00917-.00184-.01402-.00655-.00828-.01309-.01656-.01964-.02485l.00045,.00074c.00008-.02709,.00015-.05418,.00023-.08127-.0007-.02011-.0014-.04022-.00212-.06034-.00003,0,.00529,.00154,.00529,.00154,.10177,.03303,.19912,.00302,.29689-.02085-.03984,.06005-.07968,.1201-.11952,.18015-.01327,.02001-.02654,.04001-.03981,.06002-.02084,.02039-.04169,.04078-.06253,.06117l.00042-.00002c-.0079-.0488-.0158-.09759-.02423-.14968-.013,.01835-.0233,.03288-.03359,.04741Z" style="fill:#9f5d2c;"/><path d="M2.91985,3.31964c-.00008,.02709-.00015,.05418-.00023,.08127-.00542-.00013-.01082,.00008-.01621,.00063l.01643-.0819Z" style="fill:#93721f;"/><path d="M3.49909,2.21951l.08106-.09927c.01995-.02007,.03991-.04013,.05986-.0602v.03999s.00001-.00001,.00001-.00001c-.00665,.00672-.01331,.01343-.01996,.02015l-.13982,.16037c-.00024-.00733-.00048-.01467-.00072-.022,.00652-.01301,.01304-.02602,.01956-.03902Z" style="fill:#394820;"/><path d="M4.0199,1.97992c.0134,.00004,.0268,.00009,.0402,.00013-.04377,.00665-.08735,.01619-.13137,.01917-.04937,.00335-.09914,.00076-.14873,.00076-.00005-.00673-.0001-.01347-.00014-.0202,0,0-.00053-.00039-.00053-.00039,.08019,.00018,.16039,.00035,.24058,.00053Z" style="fill:#3e3e1e;"/><path d="M3.64002,2.10003v-.03999c.00682-.01325,.01365-.02651,.02047-.03976,.01307-.00021,.02615-.00042,.03922-.00063,0,0,.0005,.00054,.0005,.00054-.02007,.02662-.04013,.05323-.0602,.07985Z" style="fill:#3c4620;"/><path d="M3.47953,2.25853c.00024,.00733,.00048,.01467,.00072,.022-.00009,.00651-.00026,.01301-.00051,.01952-.00661,.00661-.01323,.01321-.01984,.01982-.00649,.00007-.01297,.00026-.01945,.0006,0,0-.0015-.00133-.0015-.00133,.01353-.0202,.02705-.04041,.04058-.06061Z" style="fill:#384820;"/><path d="M3.77985,1.97978c.00005,.00674,.0001,.01347,.00014,.0202-.0199,.00012-.0398,.00025-.0597,.00037l-.0005-.00053c.00013-.0063,.00033-.01259,.00063-.01889,.01981-.00039,.03962-.00077,.05943-.00116Z" style="fill:#3c4620;"/><path d="M3.62007,2.12017c.00665-.00672,.01331-.01343,.01996-.02015-.00665,.00672-.01331,.01343-.01996,.02015Z" style="fill:#3c4620;"/><path d="M3.72029,2.00036c-.00669,.00661-.01338,.01321-.02008,.01982l-.0005-.00054c.00669-.0066,.01338-.01321,.02008-.01981l.0005,.00053Z" style="fill:#3c4620;"/><path d="M4.0199,1.97992c-.08019-.00018-.16039-.00035-.24058-.00052l.24083-.01831c-.0001,.00628-.00018,.01256-.00024,.01883Z" style="fill:#3c4620;"/><path d="M3.71979,1.99983c-.00669,.0066-.01338,.01321-.02008,.01981-.01307,.00021-.02615,.00042-.03922,.00063,.01997-.01311,.03995-.02622,.05992-.03933-.00029,.00629-.0005,.01259-.00063,.01889Z" style="fill:#375525;"/><path d="M4.08,1.93994c-.00723,.00605-.01446,.01211-.02169,.01816,.00723-.00605,.01446-.01211,.02169-.01816Z" style="fill:#335a27;"/><path d="M.88021,1.93983c-.02671-.01998-.05343-.03996-.08014-.05994,.02671,.01998,.05343,.03996,.08014,.05994Z" style="fill:#182b19;"/><path d="M.78008,1.85993c-.00668-.00667-.01335-.01334-.02003-.02001,.00668,.00667,.01335,.01334,.02003,.02001Z" style="fill:#182b19;"/><path d="M.80009,1.87993c-.00667-.00667-.01335-.01334-.02002-.02001,.00667,.00667,.01335,.01334,.02002,.02001Z" style="fill:#182b19;"/><path d="M3.47953,2.25853c-.01353,.0202-.02705,.04041-.04058,.06061-.03296,.03416-.06591,.06831-.09887,.10247-.05676,.02796-.11986,.04777-.16871,.08587-.06574,.05127-.13543,.05732-.21146,.05085-.03329-.02793-.06657-.02785-.09986,0-.11001-.00643-.22025-.01043-.32988-.02085-.03049-.0029-.05918-.02481-.0887-.038,.0004-.0135,.00081-.02699,.00121-.04049,.08807,.01128,.17614,.02247,.2642,.03384,.1539,.01988,.30736,.03416,.45211-.04234,.10212-.05397,.16634-.14778,.24083-.23076,.03309-.00008,.06618-.00016,.09927-.00024-.00652,.01301-.01304,.02601-.01956,.03902Z" style="fill:#1e8135;"/><path d="M3.39982,2.21975c-.07448,.08297-.1387,.17679-.24083,.23076-.14475,.0765-.29821,.06222-.45211,.04234-.08805-.01137-.17613-.02257-.2642-.03384,.00016-.00679,.00032-.01359,.00048-.02038,.10457,.01272,.20899,.02679,.31373,.03789,.22834,.02419,.42523-.03147,.56777-.22547,.04302-.05855,.09012-.11409,.13535-.17101,.0067,.00003,.0134,.00006,.0201,.00009-.01452,.02445-.02929,.04875-.04348,.07339-.01261,.02189-.02457,.04415-.03682,.06624Z" style="fill:#189639;"/><path d="M2.86005,2.55834c.03329-.02786,.06657-.02793,.09986,0-.03329,0-.06657,0-.09986,0Z" style="fill:#237532;"/><path d="M3.21991,3.23999c-.09778,.02387-.19512,.05388-.29689,.02085-.02243-.05696-.04733-.11362-.02147-.17645,.01968-.00186,.03936-.00372,.05904-.00558,.09245-.0066,.1849-.0132,.27735-.01979,.02738,.00684,.05475,.01369,.08213,.02053-.03339,.05348-.06677,.10696-.10016,.16044Z" style="fill:#a25f2e;"/><path d="M3.46908,2.8304c.03558,.02025,.01086,.03713-.00369,.05331-.04153,.0462-.08373,.09179-.12567,.13762l.00159-.00119c-.04679-.0139-.09358-.0278-.14036-.0417,.08938-.04935,.17876-.09869,.26814-.14804Z" style="fill:#979796;"/><path d="M3.06058,3.48016c.01327-.02001,.02654-.04001,.03981-.06002,.0212-.00085,.04635,.00509,.06256-.00433,.01874-.01089-.00586-.0772,.05706-.04014,.01853,.01091,.05458-.00636,.08215-.01266,.1032-.02359,.21161-.03247,.29843-.1034l.03963,.00068c-.00063,.02661-.00126,.05322-.0019,.07983-.01944,.01328-.03889,.02656-.05833,.03985-.00555-.00952-.01373-.02789-.01622-.02714-.01802,.00537-.03976,.02584-.05135,.02082-.08727-.0378-.06749,.03941-.08119,.06734-.05066,.02897-.06385-.07022-.11436-.02266-.00746,.00703,.00636,.03666,.0113,.06055-.04823,0-.09564-.00017-.14304,.00005-.04152,.00019-.08304,.00082-.12455,.00125Z" style="fill:#915517;"/><path d="M3.64022,3.26029l-.03963-.00068c-.0248-.02565-.04801-.05312-.07479-.0765-.03374-.02947-.07039-.05561-.10578-.08318,.07155-.02224,.14279-.04559,.21482-.06617,.02754-.00787,.0569-.0094,.08543-.01382-.02668,.08012-.05336,.16023-.08004,.24035Z" style="fill:#ac6540;"/><path d="M3.42002,3.09992c.03539,.02758,.07204,.05371,.10578,.08318,.02678,.02339,.04999,.05085,.07479,.0765-.08682,.07093-.19523,.07981-.29843,.1034-.02758,.0063-.06363,.02357-.08215,.01266-.06291-.03706-.03831,.02925-.05706,.04014-.01622,.00942-.04136,.00348-.06256,.00433,.03984-.06005,.07968-.1201,.11952-.18015,.03339-.05348,.06677-.10696,.10016-.16044,.03332,.00679,.06664,.01358,.09995,.02037Z" style="fill:#935618;"/><path d="M3.54003,3.44001c-.02667,.04667-.05333,.09333-.08,.14-.05802,.02522-.11109,.05991-.16943,.08576-.05443,.02411-.10178,.00446-.15091,.01437-.03322-.02012-.06643-.04024-.09965-.06036,.02231-.02406,.04075-.05958,.06808-.06883,.02526-.00855,.06004,.01105,.08976,.01804,.03697-.04938,.03685-.04798,.09839-.04276,.01802,.00153,.03774-.00524,.05529-.01189,.06315-.02392,.1257-.04942,.18847-.07432Z" style="fill:#8f5317;"/><path d="M3.54003,3.44001c-.06278,.0249-.12533,.0504-.18847,.07432-.01755,.00665-.03727,.01342-.05529,.01189-.06154-.00521-.06142-.00662-.09839,.04276-.02972-.00699-.0645-.02659-.08976-.01804-.02733,.00925-.04576,.04477-.06808,.06883-.0074-.00005-.01479-.0001-.02219-.00016-.0066-.0261-.01321-.05219-.01981-.07829,.02084-.02039,.04169-.04078,.06253-.06117,.04152-.00043,.08303-.00106,.12455-.00125,.04741-.00022,.09481-.00005,.14304-.00005-.00495-.02389-.01877-.05352-.0113-.06055,.0505-.04756,.0637,.05163,.11436,.02266,.01371-.02792-.00607-.10513,.08119-.06734,.01159,.00502,.03333-.01545,.05135-.02082,.00249-.00074,.01067,.01762,.01622,.02714-.01332,.02002-.02664,.04003-.03996,.06005Z" style="fill:#915417;"/><path d="M3.13969,3.68014c.04913-.00991,.09648,.00974,.15091-.01437,.05834-.02584,.11142-.06054,.16943-.08576-.02474,.04918-.05144,.09751-.07346,.14788-.01279,.02926-.01807,.06181-.02672,.09288-.01199,.00053-.02398,.00106-.03597,.00159-.04128-.02086-.08256-.04172-.12385-.06258-.02012-.02654-.04023-.05309-.06035-.07963Z" style="fill:#8e5316;"/><path d="M2.99805,3.54133c.0066,.0261,.01321,.05219,.01981,.07829-.01211,.02022-.02423,.04045-.03634,.06067-.00711,.02002-.01422,.04003-.02132,.06005,0,0,.00012-.00026,.00012-.00026-.00625,.01457-.01249,.02914-.01874,.04371,.001,.00561,.00035,.01102-.00195,.01623-.00718,.00036-.01436,.00072-.02154,.00108l.00081,.00086c.00036-.09074-.00063-.18151,.00199-.27218,.00068-.02349,.01268-.04665,.01949-.06996,.01936,.02716,.03873,.05433,.05809,.08149l-.00042,.00002Zm-.02256,.10878c-.00183-.00215-.00367-.00431-.0055-.00646-.00208,.00192-.00569,.00373-.00582,.00577-.00013,.00202,.00324,.00427,.00508,.00642l.00624-.00573Z" style="fill:#918e88;"/><path d="M2.99847,3.54131c-.01936-.02716-.03873-.05433-.05809-.08149,.00009-.00693,.00018-.01385,.00027-.02078,.01029-.01453,.02059-.02906,.03359-.04741,.00843,.05209,.01633,.10088,.02423,.14968Z" style="fill:#93721f;"/><path d="M2.91918,3.40017c.00655,.00828,.01309,.01656,.01964,.02485-.00655-.00828-.01309-.01656-.01964-.02485Z" style="fill:#93721f;"/><path d="M2.98152,3.68029c.01211-.02022,.02423-.04045,.03634-.06067,.0074,.00005,.01479,.00011,.02219,.00016,.03322,.02012,.06643,.04024,.09965,.06036,.02012,.02654,.04023,.05309,.06035,.07963,.00985,.01648,.01969,.03296,.03421,.05726-.04611,.00951-.08848,.01747-.13038,.0274-.01183,.0028-.02965,.00916-.0322,.01765-.02003,.06672-.07124,.03554-.11167,.03793,.00615-.05448,.0123-.10896,.01845-.16344,.00102-.01876,.00205-.03753,.00307-.05629Z" style="fill:#8e6a17;"/><path d="M2.98152,3.68029c-.00102,.01876-.00205,.03753-.00307,.05629-.00599,.00171-.01208,.00296-.01825,.00376,.00711-.02002,.01422-.04003,.02132-.06005Z" style="fill:#918d87;"/><path d="M2.94158,3.78379c.00625-.01457,.01249-.02914,.01874-.04371-.00625,.01457-.01249,.02914-.01874,.04371Z" style="fill:#918d87;"/></svg>